<svg width="24" height="24" viewBox="0 0 24 24" fill="none" xmlns="http://www.w3.org/2000/svg">
<g id="icon">
<path id="arrow.down.to.line.compact" d="M7.7045 15.5346C7.29522 15.5346 7 15.8432 7 16.2592C7 16.6752 7.29522 16.9839 7.7045 16.9839H16.5678C16.9838 16.9839 17.2857 16.6752 17.2857 16.2592C17.2857 15.8432 16.9838 15.5346 16.5678 15.5346H12.3005C12.4481 15.5078 12.5823 15.4273 12.6897 15.3132L16.9771 11.0661C17.1381 10.905 17.2186 10.7239 17.2186 10.5293C17.2186 10.1133 16.9167 9.81138 16.5141 9.81138C16.3061 9.81138 16.1183 9.8986 15.9841 10.0328L14.6019 11.3881L12.8105 13.354L12.8776 11.945V5.69843C12.8776 5.2556 12.5756 4.95367 12.1462 4.95367C11.7101 4.95367 11.4082 5.2556 11.4082 5.69843V11.945L11.4753 13.3607L9.68381 11.3881L8.30836 10.0328C8.16746 9.89189 7.9863 9.81138 7.77831 9.81138C7.36902 9.81138 7.0738 10.1133 7.0738 10.5293C7.0738 10.7239 7.14761 10.905 7.30864 11.0661L11.596 15.3132C11.7034 15.4273 11.8376 15.5078 11.9852 15.5346H7.7045Z" fill="#9B9B9B"/>
</g>
</svg>
