<svg xmlns="http://www.w3.org/2000/svg" width="24" height="24" fill="none"><path d="M7.51 20h8.98c.95 0 1.758-.69 1.903-1.623.14-.91.215-1.829.223-2.748.009-.935.738-1.734 1.673-1.734v0c.56 0 .9-.615.6-1.085l-.301-.47a28.285 28.285 0 0 0-6.793-7.345l-.936-.707a1.426 1.426 0 0 0-1.717 0l-.937.707a28.287 28.287 0 0 0-6.793 7.345l-.3.47c-.3.47.04 1.085.599 1.085v0c.935 0 1.665.8 1.673 1.735.008.918.082 1.836.223 2.747A1.922 1.922 0 0 0 7.51 20Z" stroke="#313541" stroke-width="1.8" stroke-linecap="round" stroke-linejoin="round"/></svg>