<svg width="19" height="18" viewBox="0 0 19 18" fill="none" xmlns="http://www.w3.org/2000/svg">
<g id="Area">
<g id="link-share-2--create-hyperlink-link-make-unlink-square">
<path id="Vector" d="M10.1652 8.36974L16.8328 1.70203" stroke="white" stroke-width="1.5" stroke-linecap="round" stroke-linejoin="round"/>
<path id="Vector_2" d="M16.855 6.51755C17.0482 4.57283 17.0484 3.5047 16.855 1.6449C14.9953 1.45165 13.9272 1.45175 11.9824 1.6449" stroke="white" stroke-width="1.5" stroke-linecap="round" stroke-linejoin="round"/>
<path id="Intersect" d="M13.9178 8.54553C13.9672 9.18854 13.9999 9.84054 13.9999 10.5C13.9999 11.7788 13.8771 13.0293 13.7472 14.2408C13.6234 15.3931 12.7046 16.3153 11.5478 16.3876C9.14766 16.5373 6.85222 16.5373 4.45207 16.3876C3.29533 16.3153 2.3764 15.3931 2.25276 14.2408C2.12277 13.0293 2 11.7787 2 10.5C2 9.20469 2.12596 7.93835 2.25781 6.71219C2.37945 5.58092 3.26721 4.66644 4.40242 4.5897C6.30795 4.46088 8.20771 4.46404 10.1217 4.54728" stroke="white" stroke-width="1.5" stroke-linecap="round" stroke-linejoin="round"/>
</g>
</g>
</svg>
