<svg width="24" height="24" viewBox="0 0 24 24" fill="none" xmlns="http://www.w3.org/2000/svg">
<g id="icon">
<path id="link" d="M12.1508 14.5234L13.0647 13.5976C12.3599 13.5379 11.8522 13.3049 11.4878 12.9405C10.4783 11.9311 10.4783 10.5035 11.4818 9.506L13.4649 7.51695C14.4744 6.51346 15.896 6.50749 16.9054 7.51695C17.9209 8.53238 17.9089 9.95398 16.9114 10.9575L15.896 11.9669C16.0871 12.4089 16.1528 12.9465 16.0453 13.4124L17.7536 11.7101C19.223 10.2467 19.229 8.15607 17.7476 6.67474C16.2603 5.18743 14.1817 5.19938 12.7123 6.66876L10.6336 8.74741C9.16426 10.2168 9.15829 12.3014 10.6396 13.7828C10.9861 14.1352 11.4639 14.398 12.1508 14.5234ZM12.7063 9.47613L11.7924 10.402C12.4973 10.4677 13.005 10.6946 13.3693 11.059C14.3848 12.0685 14.3788 13.496 13.3753 14.4995L11.3922 16.4826C10.3828 17.4921 8.96117 17.4921 7.95769 16.4826C6.94226 15.4672 6.94823 14.0515 7.95172 13.0481L8.96117 12.0326C8.77003 11.5966 8.7103 11.059 8.81185 10.5871L7.10353 12.2954C5.63415 13.7589 5.62817 15.8435 7.10951 17.3248C8.59681 18.8121 10.6755 18.8002 12.1448 17.3368L14.2235 15.2521C15.6929 13.7828 15.6989 11.6981 14.2175 10.2168C13.8711 9.87036 13.3992 9.60754 12.7063 9.47613Z" fill="#9B9B9B"/>
</g>
</svg>
